<mxfile host="app.diagrams.net" modified="2022-07-11T23:45:45.321Z" agent="5.0 (X11; Linux x86_64) AppleWebKit/537.36 (KHTML, like Gecko) Chrome/103.0.0.0 Safari/537.36" etag="X-Q7pTjAbx6jYnxj0jAL" version="20.0.4" type="github">
  <diagram id="WeiSigM9ygNi71VtstMf" name="Page-1">
    <mxGraphModel dx="1350" dy="763" grid="1" gridSize="10" guides="1" tooltips="1" connect="1" arrows="1" fold="1" page="1" pageScale="1" pageWidth="827" pageHeight="1169" math="0" shadow="0">
      <root>
        <mxCell id="0" />
        <mxCell id="1" parent="0" />
        <UserObject label="" lucidchartObjectId="LgCxd4OQxS6Q" id="xnOHQb65_3xkN2Drd97w-1">
          <mxCell style="html=1;overflow=block;blockSpacing=1;whiteSpace=wrap;container=1;pointerEvents=0;collapsible=0;recursiveResize=0;fontSize=13;align=center;spacing=0;strokeColor=#3a414a;strokeOpacity=100;fillOpacity=100;rounded=1;absoluteArcSize=1;arcSize=12;fillColor=#ffffff;strokeWidth=0.8;" parent="1" vertex="1">
            <mxGeometry x="330" y="150" width="240" height="210" as="geometry" />
          </mxCell>
        </UserObject>
        <UserObject label="" lucidchartObjectId="3gCxHz.5zRcv" id="xnOHQb65_3xkN2Drd97w-2">
          <mxCell style="html=1;overflow=block;blockSpacing=1;whiteSpace=wrap;container=1;pointerEvents=0;collapsible=0;recursiveResize=0;fontSize=13;align=center;spacing=0;strokeColor=#3a414a;strokeOpacity=100;fillOpacity=100;rounded=1;absoluteArcSize=1;arcSize=12;fillColor=#6db1ff;strokeWidth=0.8;" parent="1" vertex="1">
            <mxGeometry x="345" y="195" width="60" height="50" as="geometry" />
          </mxCell>
        </UserObject>
        <UserObject label="" lucidchartObjectId="ehCxDYrrkQGy" id="xnOHQb65_3xkN2Drd97w-3">
          <mxCell style="html=1;overflow=block;blockSpacing=1;whiteSpace=wrap;container=1;pointerEvents=0;collapsible=0;recursiveResize=0;fontSize=13;align=center;spacing=0;strokeColor=#3a414a;strokeOpacity=100;fillOpacity=100;rounded=1;absoluteArcSize=1;arcSize=12;fillColor=#6db1ff;strokeWidth=0.8;" parent="1" vertex="1">
            <mxGeometry x="420" y="195" width="60" height="50" as="geometry" />
          </mxCell>
        </UserObject>
        <UserObject label="" lucidchartObjectId="hhCx72NzDiVH" id="xnOHQb65_3xkN2Drd97w-4">
          <mxCell style="html=1;overflow=block;blockSpacing=1;whiteSpace=wrap;container=1;pointerEvents=0;collapsible=0;recursiveResize=0;fontSize=13;align=center;spacing=0;strokeColor=#3a414a;strokeOpacity=100;fillOpacity=100;rounded=1;absoluteArcSize=1;arcSize=12;fillColor=#6db1ff;strokeWidth=0.8;" parent="1" vertex="1">
            <mxGeometry x="495" y="195" width="60" height="50" as="geometry" />
          </mxCell>
        </UserObject>
        <UserObject label="" lucidchartObjectId="rhCx7uiWj1F2" id="xnOHQb65_3xkN2Drd97w-5">
          <mxCell style="html=1;overflow=block;blockSpacing=1;whiteSpace=wrap;container=1;pointerEvents=0;collapsible=0;recursiveResize=0;fontSize=13;align=center;spacing=0;strokeColor=#3a414a;strokeOpacity=100;fillOpacity=100;rounded=1;absoluteArcSize=1;arcSize=12;fillColor=#6db1ff;strokeWidth=0.8;" parent="1" vertex="1">
            <mxGeometry x="345" y="270" width="60" height="50" as="geometry" />
          </mxCell>
        </UserObject>
        <UserObject label="" lucidchartObjectId="3nCxQrqxII~2" id="xnOHQb65_3xkN2Drd97w-6">
          <mxCell style="html=1;overflow=block;blockSpacing=1;whiteSpace=wrap;container=1;pointerEvents=0;collapsible=0;recursiveResize=0;fontSize=13;align=center;spacing=0;strokeColor=#3a414a;strokeOpacity=100;fillOpacity=100;rounded=1;absoluteArcSize=1;arcSize=12;fillColor=#6db1ff;strokeWidth=0.8;" parent="1" vertex="1">
            <mxGeometry x="420" y="270" width="60" height="50" as="geometry" />
          </mxCell>
        </UserObject>
        <UserObject label="" lucidchartObjectId="7nCxHpLeq~Vk" id="xnOHQb65_3xkN2Drd97w-7">
          <mxCell style="html=1;overflow=block;blockSpacing=1;whiteSpace=wrap;container=1;pointerEvents=0;collapsible=0;recursiveResize=0;fontSize=13;align=center;spacing=0;strokeColor=#3a414a;strokeOpacity=100;fillOpacity=100;rounded=1;absoluteArcSize=1;arcSize=12;fillColor=#6db1ff;strokeWidth=0.8;" parent="1" vertex="1">
            <mxGeometry x="495" y="270" width="60" height="50" as="geometry" />
          </mxCell>
        </UserObject>
        <UserObject label="" lucidchartObjectId="HpCxS7LL0B0f" id="xnOHQb65_3xkN2Drd97w-8">
          <mxCell style="html=1;overflow=block;blockSpacing=1;whiteSpace=wrap;container=1;pointerEvents=0;collapsible=0;recursiveResize=0;fontSize=13;align=center;spacing=0;strokeColor=#3a414a;strokeOpacity=100;fillOpacity=100;rounded=1;absoluteArcSize=1;arcSize=12;fillColor=#ffffff;strokeWidth=0.8;" parent="1" vertex="1">
            <mxGeometry x="810" y="150" width="240" height="210" as="geometry" />
          </mxCell>
        </UserObject>
        <UserObject label="SUBMIT" lucidchartObjectId="msCxfWvlA-uC" id="xnOHQb65_3xkN2Drd97w-24">
          <mxCell style="html=1;overflow=block;blockSpacing=1;whiteSpace=wrap;rounded=1;arcSize=50;fontSize=13;fontColor=#3a414a;align=center;spacing=3.8;strokeOpacity=0;fillOpacity=100;fillColor=#ff741d;strokeWidth=3;" parent="xnOHQb65_3xkN2Drd97w-8" vertex="1">
            <mxGeometry x="135" y="140" width="90" height="30" as="geometry" />
          </mxCell>
        </UserObject>
        <UserObject label="" lucidchartObjectId="HpCxj0ET2dhr" id="xnOHQb65_3xkN2Drd97w-9">
          <mxCell style="html=1;overflow=block;blockSpacing=1;whiteSpace=wrap;container=1;pointerEvents=0;collapsible=0;recursiveResize=0;fontSize=13;align=center;spacing=0;strokeColor=#3a414a;strokeOpacity=100;fillOpacity=100;rounded=1;absoluteArcSize=1;arcSize=12;fillColor=#6db1ff;strokeWidth=0.8;" parent="1" vertex="1">
            <mxGeometry x="833" y="210" width="105" height="90" as="geometry" />
          </mxCell>
        </UserObject>
        <UserObject label="" lucidchartObjectId="UtCxQGISr7ur" id="xnOHQb65_3xkN2Drd97w-10">
          <mxCell style="html=1;overflow=block;blockSpacing=1;whiteSpace=wrap;container=1;pointerEvents=0;collapsible=0;recursiveResize=0;fontSize=13;align=center;spacing=0;strokeColor=#3a414a;strokeOpacity=100;fillOpacity=100;rounded=1;absoluteArcSize=1;arcSize=12;fillColor=#ffffff;strokeWidth=0.8;" parent="1" vertex="1">
            <mxGeometry x="1005" y="581" width="240" height="210" as="geometry" />
          </mxCell>
        </UserObject>
        <UserObject label="" lucidchartObjectId="_uCxRtlqM~MQ" id="xnOHQb65_3xkN2Drd97w-11">
          <mxCell style="html=1;overflow=block;blockSpacing=1;whiteSpace=wrap;container=1;pointerEvents=0;collapsible=0;recursiveResize=0;fontSize=13;align=center;spacing=0;strokeColor=#282c33;strokeOpacity=100;fillOpacity=100;rounded=1;absoluteArcSize=1;arcSize=12;fillColor=#dfe3e8;strokeWidth=0.8;" parent="1" vertex="1">
            <mxGeometry x="1100" y="639" width="120" height="23" as="geometry" />
          </mxCell>
        </UserObject>
        <UserObject label="" lucidchartObjectId="FyCxJinS5btb" id="xnOHQb65_3xkN2Drd97w-12">
          <mxCell style="html=1;overflow=block;blockSpacing=1;whiteSpace=wrap;container=1;pointerEvents=0;collapsible=0;recursiveResize=0;fontSize=13;align=center;spacing=0;strokeColor=#3a414a;strokeOpacity=100;fillOpacity=100;rounded=1;absoluteArcSize=1;arcSize=12;fillColor=#ffffff;strokeWidth=0.8;" parent="1" vertex="1">
            <mxGeometry x="285" y="589" width="349" height="285" as="geometry" />
          </mxCell>
        </UserObject>
        <UserObject label="" lucidchartObjectId="0ACxHbq7kwwJ" id="xnOHQb65_3xkN2Drd97w-13">
          <mxCell style="html=1;overflow=block;blockSpacing=1;whiteSpace=wrap;container=1;pointerEvents=0;collapsible=0;recursiveResize=0;fontSize=13;align=center;spacing=0;strokeColor=#282c33;strokeOpacity=100;fillOpacity=100;rounded=1;absoluteArcSize=1;arcSize=12;fillColor=#dfe3e8;strokeWidth=0.8;" parent="1" vertex="1">
            <mxGeometry x="314" y="639" width="298" height="204" as="geometry" />
          </mxCell>
        </UserObject>
        <UserObject label="USER" lucidchartObjectId="-.MDxyrSrIoQ" id="xnOHQb65_3xkN2Drd97w-14">
          <mxCell style="html=1;overflow=block;blockSpacing=1;whiteSpace=wrap;rounded=1;arcSize=50;fontSize=25.2;fontColor=#ffffff;fontStyle=2;spacing=3.8;strokeOpacity=0;fillOpacity=100;fillColor=#54c45e;strokeWidth=3;" parent="1" vertex="1">
            <mxGeometry x="45" y="330" width="120" height="94" as="geometry" />
          </mxCell>
        </UserObject>
        <UserObject label="" lucidchartObjectId="TeCxJy-WPkrN" id="xnOHQb65_3xkN2Drd97w-15">
          <mxCell style="html=1;jettySize=18;whiteSpace=wrap;fontSize=13;strokeColor=#3a414a;strokeOpacity=100;strokeWidth=1.5;rounded=1;arcSize=24;edgeStyle=orthogonalEdgeStyle;startArrow=none;endArrow=block;endFill=1;exitX=0.5;exitY=0;exitPerimeter=0;entryX=-0.001;entryY=0.5;entryPerimeter=0;" parent="1" source="xnOHQb65_3xkN2Drd97w-14" target="xnOHQb65_3xkN2Drd97w-1" edge="1">
            <mxGeometry width="100" height="100" relative="1" as="geometry">
              <Array as="points" />
            </mxGeometry>
          </mxCell>
        </UserObject>
        <UserObject label="COH TEAM" lucidchartObjectId="ufCxsxZ6bUXu" id="xnOHQb65_3xkN2Drd97w-16">
          <mxCell style="html=1;overflow=block;blockSpacing=1;whiteSpace=wrap;rounded=1;arcSize=50;fontSize=25.2;fontColor=#ffffff;fontStyle=2;spacing=3.8;strokeOpacity=0;fillOpacity=100;fillColor=#00c2a8;strokeWidth=3;" parent="1" vertex="1">
            <mxGeometry x="45" y="607" width="120" height="94" as="geometry" />
          </mxCell>
        </UserObject>
        <UserObject label="PRODUCTS PAGE" lucidchartObjectId="CoCx2b7Jxtej" id="xnOHQb65_3xkN2Drd97w-17">
          <mxCell style="html=1;overflow=block;blockSpacing=1;whiteSpace=wrap;fontSize=13;fontColor=#3a414a;align=center;spacing=3.8;strokeOpacity=0;fillOpacity=0;rounded=1;absoluteArcSize=1;arcSize=12;fillColor=#ffffff;strokeWidth=0.8;" parent="1" vertex="1">
            <mxGeometry x="360" y="150" width="180" height="45" as="geometry" />
          </mxCell>
        </UserObject>
        <UserObject label="USER SELECTS AN ITEM" lucidchartObjectId="WoCxEC.uF5-h" id="xnOHQb65_3xkN2Drd97w-18">
          <mxCell style="html=1;overflow=block;blockSpacing=1;whiteSpace=wrap;fontSize=15.2;fontColor=#3a414a;fontStyle=1;align=center;spacing=3.8;strokeOpacity=0;fillOpacity=0;rounded=1;absoluteArcSize=1;arcSize=12;fillColor=#ffffff;strokeWidth=0.8;" parent="1" vertex="1">
            <mxGeometry x="360" y="367" width="180" height="45" as="geometry" />
          </mxCell>
        </UserObject>
        <UserObject label="" lucidchartObjectId="BpCxBbqChPc1" id="xnOHQb65_3xkN2Drd97w-19">
          <mxCell style="html=1;jettySize=18;whiteSpace=wrap;fontSize=13;strokeColor=#3a414a;strokeOpacity=100;strokeWidth=1.5;rounded=1;arcSize=24;edgeStyle=orthogonalEdgeStyle;startArrow=none;endArrow=block;endFill=1;exitX=1.001;exitY=0.5;exitPerimeter=0;entryX=-0.001;entryY=0.5;entryPerimeter=0;" parent="1" source="xnOHQb65_3xkN2Drd97w-1" target="xnOHQb65_3xkN2Drd97w-8" edge="1">
            <mxGeometry width="100" height="100" relative="1" as="geometry">
              <Array as="points" />
            </mxGeometry>
          </mxCell>
        </UserObject>
        <UserObject label="SINGLE PRODUCTS PAGE" lucidchartObjectId="HpCxuAGZS-k0" id="xnOHQb65_3xkN2Drd97w-20">
          <mxCell style="html=1;overflow=block;blockSpacing=1;whiteSpace=wrap;fontSize=13;fontColor=#3a414a;align=center;spacing=3.8;strokeOpacity=0;fillOpacity=0;rounded=1;absoluteArcSize=1;arcSize=12;fillColor=#ffffff;strokeWidth=0.8;" parent="1" vertex="1">
            <mxGeometry x="840" y="150" width="180" height="45" as="geometry" />
          </mxCell>
        </UserObject>
        <UserObject label="USER ADDS HOW MANY ITEMS THEY WANT" lucidchartObjectId="HpCxIhuSPL3S" id="xnOHQb65_3xkN2Drd97w-21">
          <mxCell style="html=1;overflow=block;blockSpacing=1;whiteSpace=wrap;fontSize=15.2;fontColor=#3a414a;fontStyle=1;align=center;spacing=3.8;strokeOpacity=0;fillOpacity=0;rounded=1;absoluteArcSize=1;arcSize=12;fillColor=#ffffff;strokeWidth=0.8;" parent="1" vertex="1">
            <mxGeometry x="840" y="367" width="180" height="62" as="geometry" />
          </mxCell>
        </UserObject>
        <UserObject label="ITEM NAME" lucidchartObjectId="WqCx.oVY_SKB" id="xnOHQb65_3xkN2Drd97w-22">
          <mxCell style="html=1;overflow=block;blockSpacing=1;whiteSpace=wrap;fontSize=13;fontColor=#3a414a;align=center;spacing=3.8;strokeOpacity=0;fillOpacity=0;rounded=1;absoluteArcSize=1;arcSize=12;fillColor=#ffffff;strokeWidth=0.8;" parent="1" vertex="1">
            <mxGeometry x="900" y="202" width="180" height="45" as="geometry" />
          </mxCell>
        </UserObject>
        <UserObject label="DESCRIPTION&#xa;" lucidchartObjectId="~qCxe7cGLuyi" id="xnOHQb65_3xkN2Drd97w-23">
          <mxCell style="html=1;overflow=block;blockSpacing=1;whiteSpace=wrap;fontSize=13;fontColor=#3a414a;align=center;spacing=3.8;strokeOpacity=0;fillOpacity=0;rounded=1;absoluteArcSize=1;arcSize=12;fillColor=#ffffff;strokeWidth=0.8;" parent="1" vertex="1">
            <mxGeometry x="900" y="240" width="180" height="45" as="geometry" />
          </mxCell>
        </UserObject>
        <UserObject label="FORM WITH DETAILS" lucidchartObjectId="UtCx1uiFFkxJ" id="xnOHQb65_3xkN2Drd97w-25">
          <mxCell style="html=1;overflow=block;blockSpacing=1;whiteSpace=wrap;fontSize=13;fontColor=#3a414a;align=center;spacing=3.8;strokeOpacity=0;fillOpacity=0;rounded=1;absoluteArcSize=1;arcSize=12;fillColor=#ffffff;strokeWidth=0.8;" parent="1" vertex="1">
            <mxGeometry x="1035" y="581" width="180" height="45" as="geometry" />
          </mxCell>
        </UserObject>
        <UserObject label="USER SUBMITS DETAILS AND ORDER" lucidchartObjectId="UtCx3puXFcE~" id="xnOHQb65_3xkN2Drd97w-26">
          <mxCell style="html=1;overflow=block;blockSpacing=1;whiteSpace=wrap;fontSize=15.2;fontColor=#3a414a;fontStyle=1;align=center;spacing=3.8;strokeOpacity=0;fillOpacity=0;rounded=1;absoluteArcSize=1;arcSize=12;fillColor=#ffffff;strokeWidth=0.8;" parent="1" vertex="1">
            <mxGeometry x="1035" y="798" width="180" height="62" as="geometry" />
          </mxCell>
        </UserObject>
        <UserObject label="NAME" lucidchartObjectId="UtCx2LmSmMGc" id="xnOHQb65_3xkN2Drd97w-27">
          <mxCell style="html=1;overflow=block;blockSpacing=1;whiteSpace=wrap;fontSize=13;fontColor=#3a414a;align=center;spacing=3.8;strokeOpacity=0;fillOpacity=0;rounded=1;absoluteArcSize=1;arcSize=12;fillColor=#ffffff;strokeWidth=0.8;" parent="1" vertex="1">
            <mxGeometry x="1020" y="630" width="80" height="45" as="geometry" />
          </mxCell>
        </UserObject>
        <UserObject label="SUBMIT" lucidchartObjectId="UtCxpDVoI5vv" id="xnOHQb65_3xkN2Drd97w-28">
          <mxCell style="html=1;overflow=block;blockSpacing=1;whiteSpace=wrap;rounded=1;arcSize=50;fontSize=13;fontColor=#3a414a;align=center;spacing=3.8;strokeOpacity=0;fillOpacity=100;fillColor=#ff741d;strokeWidth=3;" parent="1" vertex="1">
            <mxGeometry x="1130" y="720" width="90" height="30" as="geometry" />
          </mxCell>
        </UserObject>
        <UserObject label="" lucidchartObjectId="KwCxtG8z_Btf" id="xnOHQb65_3xkN2Drd97w-29">
          <mxCell style="html=1;jettySize=18;whiteSpace=wrap;fontSize=13;strokeColor=#3a414a;strokeOpacity=100;strokeWidth=1.5;rounded=1;arcSize=24;edgeStyle=orthogonalEdgeStyle;startArrow=none;endArrow=block;endFill=1;exitX=-0.001;exitY=0.5;exitPerimeter=0;entryX=1.004;entryY=0.5;entryPerimeter=0;" parent="1" source="xnOHQb65_3xkN2Drd97w-10" target="xnOHQb65_3xkN2Drd97w-30" edge="1">
            <mxGeometry width="100" height="100" relative="1" as="geometry">
              <Array as="points" />
            </mxGeometry>
          </mxCell>
        </UserObject>
        <UserObject label="GETS SENT TO BACKEND" lucidchartObjectId="PwCx9cB_fwgp" id="xnOHQb65_3xkN2Drd97w-30">
          <mxCell style="html=1;overflow=block;blockSpacing=1;whiteSpace=wrap;fontSize=20.2;fontColor=#3a414a;fontStyle=1;align=center;spacing=3.8;strokeColor=#282c33;strokeOpacity=100;fillOpacity=100;rounded=1;absoluteArcSize=1;arcSize=12;fillColor=#edf5ff;strokeWidth=1.5;" parent="1" vertex="1">
            <mxGeometry x="720" y="658" width="180" height="56" as="geometry" />
          </mxCell>
        </UserObject>
        <UserObject label="" lucidchartObjectId="wxCxCgczrVUQ" id="xnOHQb65_3xkN2Drd97w-31">
          <mxCell style="html=1;jettySize=18;whiteSpace=wrap;fontSize=13;strokeColor=#3a414a;strokeOpacity=100;strokeWidth=1.5;rounded=1;arcSize=24;edgeStyle=orthogonalEdgeStyle;startArrow=none;endArrow=block;endFill=1;exitX=1.001;exitY=0.496;exitPerimeter=0;entryX=0.5;entryY=0.001;entryPerimeter=0;" parent="1" source="xnOHQb65_3xkN2Drd97w-8" target="xnOHQb65_3xkN2Drd97w-25" edge="1">
            <mxGeometry width="100" height="100" relative="1" as="geometry">
              <Array as="points">
                <mxPoint x="1125" y="254" />
              </Array>
            </mxGeometry>
          </mxCell>
        </UserObject>
        <UserObject label="" lucidchartObjectId="QyCx2Ux-xSLV" id="xnOHQb65_3xkN2Drd97w-32">
          <mxCell style="html=1;jettySize=18;whiteSpace=wrap;fontSize=13;strokeColor=#3a414a;strokeOpacity=100;strokeWidth=1.5;rounded=1;arcSize=24;edgeStyle=orthogonalEdgeStyle;startArrow=none;endArrow=block;endFill=1;exitX=-0.004;exitY=0.638;exitPerimeter=0;entryX=1.001;entryY=0.369;entryPerimeter=0;" parent="1" source="xnOHQb65_3xkN2Drd97w-30" target="xnOHQb65_3xkN2Drd97w-12" edge="1">
            <mxGeometry width="100" height="100" relative="1" as="geometry">
              <Array as="points" />
            </mxGeometry>
          </mxCell>
        </UserObject>
        <UserObject label="TABLE WITH ORDER ITEMS" lucidchartObjectId="TzCxSa7nKsDd" id="xnOHQb65_3xkN2Drd97w-33">
          <mxCell style="html=1;overflow=block;blockSpacing=1;whiteSpace=wrap;fontSize=13;fontColor=#3a414a;align=center;spacing=3.8;strokeOpacity=0;fillOpacity=0;rounded=1;absoluteArcSize=1;arcSize=12;fillColor=#ffffff;strokeWidth=0.8;" parent="1" vertex="1">
            <mxGeometry x="353" y="594" width="212" height="45" as="geometry" />
          </mxCell>
        </UserObject>
        <UserObject label="&lt;div style=&quot;display: flex; justify-content: center; text-align: center; align-items: baseline; font-size: 0; line-height: 1.25;margin-top: -2px;&quot;&gt;&lt;span&gt;&lt;span style=&quot;font-size:13px;color:#3a414a;&quot;&gt;ID&lt;/span&gt;&lt;span style=&quot;font-size:16px;color:#000000;&quot;&gt; &lt;/span&gt;&lt;/span&gt;&lt;/div&gt;" lucidchartObjectId="YBCxT6r~mman" id="xnOHQb65_3xkN2Drd97w-34">
          <mxCell style="html=1;overflow=block;blockSpacing=1;whiteSpace=wrap;fontSize=13;spacing=3.8;strokeOpacity=0;fillOpacity=0;rounded=1;absoluteArcSize=1;arcSize=12;fillColor=#ffffff;strokeWidth=0.8;" parent="1" vertex="1">
            <mxGeometry x="313" y="649" width="60" height="45" as="geometry" />
          </mxCell>
        </UserObject>
        <UserObject label="NAME" lucidchartObjectId="cCCxuVbq3Tg~" id="xnOHQb65_3xkN2Drd97w-35">
          <mxCell style="html=1;overflow=block;blockSpacing=1;whiteSpace=wrap;fontSize=13;fontColor=#3a414a;align=center;spacing=3.8;strokeOpacity=0;fillOpacity=0;rounded=1;absoluteArcSize=1;arcSize=12;fillColor=#ffffff;strokeWidth=0.8;" parent="1" vertex="1">
            <mxGeometry x="360" y="649" width="80" height="45" as="geometry" />
          </mxCell>
        </UserObject>
        <UserObject label="PRODUCT" lucidchartObjectId="iCCx~i~XhL1Y" id="xnOHQb65_3xkN2Drd97w-36">
          <mxCell style="html=1;overflow=block;blockSpacing=1;whiteSpace=wrap;fontSize=13;fontColor=#3a414a;align=center;spacing=3.8;strokeOpacity=0;fillOpacity=0;rounded=1;absoluteArcSize=1;arcSize=12;fillColor=#ffffff;strokeWidth=0.8;" parent="1" vertex="1">
            <mxGeometry x="439" y="649" width="80" height="45" as="geometry" />
          </mxCell>
        </UserObject>
        <UserObject label="&amp;nbsp; &amp;nbsp; &amp;nbsp; 1&amp;nbsp; &amp;nbsp; &amp;nbsp; &amp;nbsp; &amp;nbsp; &amp;nbsp;SUSAN&amp;nbsp; &amp;nbsp; &amp;nbsp; NAPPIES&amp;nbsp; &amp;nbsp; &amp;nbsp; &amp;nbsp; &amp;nbsp; x2       " lucidchartObjectId="bDCxvovdVAgh" id="xnOHQb65_3xkN2Drd97w-37">
          <mxCell style="html=1;overflow=block;blockSpacing=1;whiteSpace=wrap;fontSize=13;fontColor=#3a414a;align=left;spacing=3.8;verticalAlign=middle;strokeOpacity=0;fillOpacity=0;rounded=1;absoluteArcSize=1;arcSize=12;fillColor=#ffffff;strokeWidth=0.8;" parent="1" vertex="1">
            <mxGeometry x="314" y="694" width="290" height="45" as="geometry" />
          </mxCell>
        </UserObject>
        <UserObject label="&amp;nbsp; &amp;nbsp; &amp;nbsp; 2&amp;nbsp; &amp;nbsp; &amp;nbsp; &amp;nbsp; &amp;nbsp; &amp;nbsp;JOHN&amp;nbsp; &amp;nbsp; &amp;nbsp; &amp;nbsp; MICROWAVE&amp;nbsp; &amp;nbsp; &amp;nbsp;x1    " lucidchartObjectId="HECxDzqLB3jl" id="xnOHQb65_3xkN2Drd97w-38">
          <mxCell style="html=1;overflow=block;blockSpacing=1;whiteSpace=wrap;fontSize=13;fontColor=#3a414a;align=left;spacing=3.8;verticalAlign=middle;strokeOpacity=0;fillOpacity=0;rounded=1;absoluteArcSize=1;arcSize=12;fillColor=#ffffff;strokeWidth=0.8;" parent="1" vertex="1">
            <mxGeometry x="314" y="746" width="290" height="45" as="geometry" />
          </mxCell>
        </UserObject>
        <UserObject label="" lucidchartObjectId="aFCxFA5ae8RL" id="xnOHQb65_3xkN2Drd97w-39">
          <mxCell style="html=1;jettySize=18;whiteSpace=wrap;fontSize=13;strokeColor=#3a414a;strokeOpacity=100;strokeWidth=1.5;rounded=1;arcSize=24;edgeStyle=orthogonalEdgeStyle;startArrow=none;endArrow=block;endFill=1;exitX=-0.001;exitY=0.5;exitPerimeter=0;entryX=0.5;entryY=1;entryPerimeter=0;" parent="1" source="xnOHQb65_3xkN2Drd97w-12" target="xnOHQb65_3xkN2Drd97w-16" edge="1">
            <mxGeometry width="100" height="100" relative="1" as="geometry">
              <Array as="points" />
            </mxGeometry>
          </mxCell>
        </UserObject>
        <UserObject label="COH TO FULLFILL" lucidchartObjectId="GFCxhKAP3AZN" id="xnOHQb65_3xkN2Drd97w-40">
          <mxCell style="html=1;overflow=block;blockSpacing=1;whiteSpace=wrap;fontSize=16.8;fontColor=#3a414a;fontStyle=1;align=center;spacing=3.8;strokeOpacity=0;fillOpacity=0;rounded=1;absoluteArcSize=1;arcSize=12;fillColor=#ffffff;strokeWidth=0.8;" parent="1" vertex="1">
            <mxGeometry x="369" y="889" width="180" height="45" as="geometry" />
          </mxCell>
        </UserObject>
        <UserObject label="QUANTITY" lucidchartObjectId="9IFxyVeFm~Fo" id="xnOHQb65_3xkN2Drd97w-41">
          <mxCell style="html=1;overflow=block;blockSpacing=1;whiteSpace=wrap;fontSize=13;fontColor=#3a414a;align=center;spacing=3.8;strokeOpacity=0;fillOpacity=0;rounded=1;absoluteArcSize=1;arcSize=12;fillColor=#ffffff;strokeWidth=0.8;" parent="1" vertex="1">
            <mxGeometry x="525" y="649" width="80" height="45" as="geometry" />
          </mxCell>
        </UserObject>
        <mxCell id="xnOHQb65_3xkN2Drd97w-42" value="" style="group;dropTarget=0;pointerEvents=0;" parent="1" vertex="1">
          <mxGeometry x="340" y="40" width="640" height="58" as="geometry" />
        </mxCell>
        <UserObject label="&lt;div style=&quot;display: flex; justify-content: center; text-align: center; align-items: baseline; font-size: 0; line-height: 1.25;margin-left: 7px;margin-right: 7px;margin-top: 2px;margin-top: -2px;&quot;&gt;&lt;span&gt;&lt;span style=&quot;font-size:19.7px;color:#a9afb8;font-weight: bold;&quot;&gt;USER STORY TO IMPLMENT FOR THIS WEEK&#xa;&lt;/span&gt;&lt;/span&gt;&lt;/div&gt;&lt;div style=&quot;display: flex; justify-content: center; text-align: center; align-items: baseline; font-size: 0; line-height: 1.25;margin-left: 7px;margin-right: 7px;margin-top: 2px;margin-top: -2px;&quot;&gt;&lt;span&gt;&lt;/span&gt;&lt;/div&gt;" lucidchartObjectId="SuaB0mNpY13K" id="xnOHQb65_3xkN2Drd97w-43">
          <mxCell style="html=1;overflow=block;blockSpacing=1;whiteSpace=wrap;fontSize=13;spacing=3;strokeOpacity=0;fillOpacity=0;rounded=1;absoluteArcSize=1;arcSize=12;fillColor=#ffffff;strokeWidth=1.5;" parent="xnOHQb65_3xkN2Drd97w-42" vertex="1">
            <mxGeometry width="640" height="57" as="geometry" />
          </mxCell>
        </UserObject>
        <UserObject label="%creatorName%  |  %date{mmmm d, yyyy}%" placeholders="1" lucidchartObjectId="SuaBzqFhpa1o" id="xnOHQb65_3xkN2Drd97w-44">
          <mxCell style="html=1;overflow=block;blockSpacing=1;whiteSpace=wrap;fontSize=11.5;fontColor=#a9afb8;align=center;spacingLeft=7;spacingRight=7;spacingTop=2;spacing=3;strokeOpacity=0;fillOpacity=0;rounded=1;absoluteArcSize=1;arcSize=12;fillColor=#ffffff;strokeWidth=1.5;" parent="xnOHQb65_3xkN2Drd97w-42" vertex="1">
            <mxGeometry y="44" width="640" height="14" as="geometry" />
          </mxCell>
        </UserObject>
        <UserObject label="" lucidchartObjectId="SuaBUnwJteK4" id="xnOHQb65_3xkN2Drd97w-45">
          <mxCell style="html=1;jettySize=18;whiteSpace=wrap;fontSize=13;fontFamily=Helvetica;strokeColor=#a9afb8;strokeOpacity=100;strokeWidth=1.5;rounded=0;startArrow=none;endArrow=none;" parent="xnOHQb65_3xkN2Drd97w-42" edge="1">
            <mxGeometry width="100" height="100" relative="1" as="geometry">
              <Array as="points" />
              <mxPoint x="191" y="43" as="sourcePoint" />
              <mxPoint x="454" y="43" as="targetPoint" />
            </mxGeometry>
          </mxCell>
        </UserObject>
        <mxCell id="xnOHQb65_3xkN2Drd97w-46" value="Text" style="edgeLabel;html=1;align=center;verticalAlign=middle;resizable=0;points=[];" parent="xnOHQb65_3xkN2Drd97w-45" vertex="1" connectable="0">
          <mxGeometry x="0.308" y="-4" relative="1" as="geometry">
            <mxPoint as="offset" />
          </mxGeometry>
        </mxCell>
      </root>
    </mxGraphModel>
  </diagram>
</mxfile>
